<?xml version="1.0" standalone="no"?>
<!DOCTYPE svg PUBLIC "-//W3C//DTD SVG 20010904//EN"
 "http://www.w3.org/TR/2001/REC-SVG-20010904/DTD/svg10.dtd">
<svg version="1.0" xmlns="http://www.w3.org/2000/svg"
 width="810.000000pt" height="810.000000pt" viewBox="0 0 810.000000 810.000000"
 preserveAspectRatio="xMidYMid meet">
<metadata>
Created by potrace 1.14, written by Peter Selinger 2001-2017
</metadata>
<g transform="translate(0.000000,810.000000) scale(0.100000,-0.100000)"
fill="#000000" stroke="none">
<path d="M2440 5720 c-284 -57 -438 -106 -573 -182 -40 -23 -74 -44 -77 -47
-3 -4 -41 -33 -85 -64 -44 -31 -85 -60 -90 -64 -27 -20 -84 -44 -111 -48 -71
-9 -225 -91 -292 -155 -43 -42 -91 -167 -138 -365 -8 -33 -17 -69 -19 -80 -3
-11 -12 -58 -21 -105 -9 -47 -17 -92 -19 -100 -4 -23 -14 -135 -20 -225 -11
-161 -43 -217 -129 -221 -49 -2 -81 15 -126 67 l-36 42 2 -65 c3 -67 -9 -108
-21 -76 -4 9 -4 30 -2 46 3 16 2 34 -2 40 -13 21 -29 -3 -35 -53 -4 -27 -8
-61 -11 -75 -12 -67 -16 -90 -22 -155 -12 -112 -8 -404 6 -465 7 -30 15 -66
17 -80 6 -28 112 -354 126 -385 18 -41 75 -121 133 -189 6 -6 35 -41 65 -76
169 -199 205 -225 495 -347 197 -84 255 -99 433 -109 89 -6 92 -5 92 16 l0 21
26 -20 c33 -26 41 -26 49 -1 5 16 10 18 25 10 16 -8 18 -8 14 5 -4 8 -9 15
-13 16 -3 0 -15 2 -26 4 -11 3 -38 7 -60 9 -103 14 -244 52 -268 74 -19 16
-19 16 -13 -5 10 -31 -2 -29 -47 8 -52 43 -48 75 13 106 46 23 68 28 155 37
66 7 79 10 171 39 91 29 211 76 302 118 35 16 65 29 67 29 1 0 85 40 186 89
241 116 318 151 340 154 9 2 26 13 36 25 12 15 43 29 91 42 40 10 84 25 97 34
13 9 36 16 50 16 14 0 25 6 25 14 0 7 13 16 29 19 35 7 61 32 61 59 0 11 14
38 31 59 17 21 29 45 26 51 -2 7 2 33 8 58 6 25 11 54 10 66 -2 30 -237 344
-301 403 -64 59 -136 95 -224 112 -76 15 -181 20 -195 8 -5 -4 -12 -7 -15 -6
-13 4 -122 -58 -185 -105 -66 -50 -269 -246 -345 -335 -19 -22 -45 -58 -56
-79 -21 -39 -79 -87 -97 -81 -37 12 -73 348 -47 428 18 54 44 67 79 41 24 -17
31 -18 57 -7 35 14 70 50 38 39 -10 -4 -25 -12 -33 -18 -8 -6 -16 -10 -18 -9
-2 2 -17 10 -33 18 -17 9 -31 22 -31 30 -1 8 -2 25 -3 38 -3 27 20 88 37 100
8 5 5 7 -8 5 -24 -4 -23 5 7 80 17 45 19 59 10 95 -20 77 -31 167 -37 304 -4
114 18 222 68 323 24 48 165 194 217 224 l32 18 -7 -23 -8 -23 29 19 c18 12
51 20 89 22 33 1 63 2 67 3 3 0 8 8 10 17 2 13 26 -5 93 -73 107 -107 105
-104 145 -185 42 -83 62 -141 52 -151 -9 -9 -79 55 -145 134 -72 86 -99 102
-176 104 -55 2 -76 -2 -128 -27 -73 -35 -135 -100 -139 -145 -2 -38 -13 -113
-20 -144 -8 -37 -16 -82 -19 -105 -1 -11 -3 -20 -4 -20 -3 0 -8 -21 -27 -130
-9 -48 -14 -113 -19 -208 -5 -115 -14 -169 -32 -183 -13 -9 -13 -13 2 -28 17
-17 19 -17 37 2 16 15 20 37 23 108 5 107 14 221 19 251 3 11 7 43 11 70 7 53
42 172 55 188 4 6 16 37 25 70 18 61 57 108 145 177 l35 27 43 -42 c51 -50 92
-115 92 -146 0 -48 27 -88 76 -112 63 -30 198 -32 321 -6 7 2 16 6 19 10 4 4
15 7 25 7 42 0 345 142 444 208 132 88 245 216 260 294 15 75 -210 374 -295
393 -16 3 -50 22 -76 42 -43 33 -46 34 -39 12 l7 -24 -23 21 c-22 19 -47 33
-74 40 -65 16 -106 21 -181 23 -97 1 -136 -10 -93 -28 13 -5 49 -17 79 -25 30
-9 95 -36 145 -60 66 -33 93 -42 102 -34 7 6 14 8 14 4 1 -3 3 -10 4 -16 1 -5
3 -16 4 -24 0 -7 24 -46 51 -87 29 -43 49 -83 48 -95 -2 -13 12 -37 35 -63 20
-22 38 -48 38 -56 1 -8 2 -25 3 -37 2 -26 -20 -58 -40 -58 -8 0 -11 10 -10 28
4 27 -15 75 -34 87 -20 12 -30 -6 -15 -28 22 -35 25 -74 7 -94 -28 -30 -69
-53 -109 -59 -46 -7 -53 -11 -53 -29 0 -8 -18 -19 -42 -26 -24 -6 -80 -27
-126 -46 -91 -37 -89 -38 -124 21 -31 55 -265 292 -307 312 -65 31 -276 13
-362 -31 -16 -9 -32 -16 -36 -16 -18 -2 -82 -40 -138 -81 -153 -114 -282 -283
-408 -537 -37 -73 -67 -137 -67 -141 0 -4 -6 -23 -14 -41 -8 -19 -15 -37 -15
-41 -1 -9 -33 -80 -89 -198 -41 -88 -76 -199 -89 -285 -14 -99 -7 -255 16
-335 12 -41 26 -91 31 -111 6 -23 35 -62 77 -106 84 -87 136 -127 188 -143 22
-7 58 -20 80 -29 55 -22 163 -22 176 2 6 9 19 17 30 17 48 0 161 76 187 126 9
16 7 27 -9 53 l-20 33 30 -21 c27 -20 59 -20 62 0 5 34 4 57 -3 77 -5 16 -4
22 6 22 26 0 103 146 113 215 4 31 44 75 67 75 8 0 25 15 40 34 30 39 135 96
178 96 47 0 112 -50 275 -213 133 -132 147 -170 79 -230 -17 -15 -118 -69
-136 -72 -40 -8 -95 -30 -124 -50 -20 -14 -41 -25 -46 -25 -6 0 -10 -4 -10 -8
0 -5 -16 -17 -35 -28 -19 -10 -35 -22 -35 -26 0 -3 -10 -10 -22 -14 -13 -4
-25 -10 -28 -14 -6 -8 -519 -264 -537 -267 -6 -1 -22 -4 -36 -7 -14 -2 -37
-12 -50 -21 -22 -14 -45 -16 -155 -11 -121 5 -211 18 -236 34 -12 7 -14 8 -71
17 -56 9 -105 43 -217 153 -121 118 -154 142 -193 142 -17 0 -40 7 -51 15 -18
15 -18 15 9 9 33 -8 35 4 7 60 -29 62 -32 86 -36 285 -4 190 -1 211 37 211 14
0 17 6 13 27 -3 15 -8 31 -12 37 -3 6 6 3 21 -6 14 -10 31 -18 36 -18 14 0 20
60 25 240 3 85 7 171 11 190 13 69 45 192 59 223 28 64 36 94 66 232 34 159
32 150 55 230 31 107 103 255 167 340 71 94 97 127 132 163 43 46 91 76 105
68 5 -3 19 3 32 13 57 44 226 108 359 136 47 10 103 26 125 36 22 10 76 27
120 39 87 23 186 58 280 100 33 15 75 33 93 40 31 12 52 36 52 60 0 19 -145 9
-290 -20z m951 -522 c47 -68 49 -79 9 -41 -16 15 -30 34 -30 40 0 7 -4 13 -8
13 -5 0 -19 19 -32 43 l-23 42 23 -20 c12 -11 40 -46 61 -77z m88 -19 c32 -32
40 -45 19 -33 -22 12 -58 47 -58 56 0 13 7 9 39 -23z m69 -88 c17 -10 -2 -28
-37 -33 -32 -4 -37 14 -9 28 30 15 31 15 46 5z m67 -126 c-3 -32 -12 -42 -26
-28 -14 14 -2 53 16 53 8 0 12 -9 10 -25z m-177 -197 c17 -17 15 -28 -7 -28
-22 0 -35 15 -26 30 8 13 18 13 33 -2z m-89 -54 c27 -45 29 -77 3 -43 -24 33
-44 79 -33 79 5 0 18 -16 30 -36z m-63 -26 c16 -24 33 -46 39 -50 6 -5 6 -8
-1 -8 -16 0 -74 67 -74 85 0 22 5 19 36 -27z m-71 -27 c8 -14 -28 -31 -44 -21
-8 4 -10 13 -7 19 9 13 43 15 51 2z m-1332 -537 c-8 -21 -27 -17 -52 10 -21
22 -21 24 -4 28 25 6 63 -20 56 -38z m-49 -70 c23 -9 20 -34 -3 -34 -22 0 -35
15 -26 30 7 12 8 12 29 4z m-187 -124 c46 -28 87 -94 87 -141 1 -35 3 -38 26
-34 18 3 29 -2 38 -16 12 -19 11 -20 -7 -14 -20 6 -21 3 -20 -53 2 -62 -6 -87
-22 -77 -5 4 -9 1 -10 -4 -5 -58 6 -126 27 -155 20 -29 18 -34 -11 -28 -20 3
-25 0 -25 -16 0 -11 -5 -33 -12 -49 -6 -15 -12 -30 -12 -33 -1 -3 -5 -11 -9
-18 -20 -30 -26 -74 -14 -100 12 -27 65 -82 79 -82 15 0 9 -80 -7 -86 -10 -4
-13 -14 -9 -33 l7 -26 -28 25 c-15 14 -31 33 -37 43 -8 16 -7 17 11 8 26 -14
31 -14 31 2 0 17 -34 49 -43 41 -10 -10 -62 33 -92 77 -26 37 -31 53 -34 110
-1 9 -18 38 -39 65 -39 49 -61 91 -42 79 17 -11 27 37 28 128 0 48 2 91 6 94
3 3 14 -1 24 -10 38 -35 40 -15 3 41 -22 31 -37 58 -36 60 2 2 23 -3 47 -11
54 -19 71 -9 56 34 -12 36 -51 64 -75 55 -14 -6 -14 -4 2 14 21 23 33 23 111
-1 23 -7 50 -9 60 -5 18 7 18 8 0 21 -10 8 -31 12 -47 10 -34 -4 -49 14 -49
61 0 10 -6 13 -19 9 -11 -3 -21 0 -24 9 -5 13 7 21 38 25 6 0 24 -8 42 -19z
m1540 -613 c-6 -17 -49 -17 -54 0 -3 7 8 13 24 15 34 4 37 3 30 -15z m-1307
-211 c17 -21 29 -20 24 2 -4 14 2 17 38 18 24 0 57 4 74 8 26 7 35 4 58 -18
30 -31 33 -38 10 -29 -10 4 -22 -1 -30 -11 -12 -16 -14 -16 -38 -1 -36 24 -50
11 -30 -27 l16 -30 -23 16 c-33 22 -53 21 -46 -4 6 -24 -8 -26 -29 -5 -21 21
-33 19 -27 -5 4 -17 0 -20 -25 -20 -52 0 -76 61 -41 102 11 11 19 25 19 30 0
11 33 -6 50 -26z"/>
<path d="M1666 3755 c5 -11 14 -26 21 -33 29 -29 4 -64 -47 -66 -36 -1 -38
-12 -8 -38 37 -32 108 -10 108 34 0 27 -23 69 -55 98 -22 21 -25 22 -19 5z"/>
<path d="M1520 3488 c0 -20 35 -65 63 -79 16 -9 14 -2 -13 32 -48 63 -50 65
-50 47z"/>
<path d="M1668 3442 c-21 -2 -38 -5 -38 -8 0 -3 12 -16 28 -29 27 -25 48 -33
37 -15 -3 5 -1 19 5 31 14 25 14 25 -32 21z"/>
<path d="M1520 3380 c0 -25 16 -50 32 -50 14 0 8 24 -12 50 l-20 25 0 -25z"/>
<path d="M1600 3362 c0 -9 45 -51 70 -67 13 -8 13 -7 0 11 -18 24 -59 64 -66
64 -2 0 -4 -4 -4 -8z"/>
<path d="M4120 5710 c-42 -8 -69 -22 -92 -47 -17 -19 -53 -131 -63 -198 -16
-109 -24 -177 -30 -250 -17 -228 -32 -278 -116 -385 -51 -65 -53 -118 -22
-540 13 -180 7 -219 -38 -239 -28 -12 -89 -7 -75 6 3 3 2 11 -3 17 -5 6 -14
28 -20 49 -7 20 -17 37 -22 37 -22 0 -55 -110 -74 -250 -8 -61 -12 -88 -20
-135 -3 -22 -8 -56 -10 -75 -2 -19 -7 -51 -9 -70 -12 -80 -18 -126 -21 -150
-2 -25 -14 -114 -20 -160 -2 -14 -6 -50 -10 -80 -17 -149 -52 -296 -115 -475
-66 -189 -84 -264 -96 -403 -7 -74 0 -112 22 -112 11 0 13 6 9 19 -6 21 12
109 28 129 5 6 7 12 4 12 -3 0 -1 18 4 40 5 22 12 56 15 75 12 78 47 131 77
119 22 -8 35 -55 42 -147 7 -95 18 -125 49 -137 24 -9 171 -23 211 -20 55 4
153 -9 199 -27 22 -9 53 -16 68 -16 24 0 27 -4 30 -36 3 -32 7 -37 43 -50 57
-19 265 -20 289 -1 74 62 160 169 171 213 4 15 16 32 26 38 17 8 71 100 68
114 0 3 2 23 6 44 4 22 8 93 10 158 2 65 10 154 20 198 23 112 21 169 -6 227
-12 26 -26 48 -30 48 -4 0 -10 13 -14 30 -5 23 -1 37 20 64 26 34 43 79 49
134 2 15 11 50 19 78 29 93 45 121 82 138 19 9 35 20 36 24 0 4 2 14 4 23 4
23 17 193 20 264 1 33 -4 75 -11 94 -27 66 -34 122 -38 308 -3 128 0 158 14
191 10 22 23 43 29 46 18 12 12 24 -9 19 -23 -6 -25 4 -9 44 13 33 18 56 25
102 2 19 9 40 13 45 5 6 12 34 16 61 9 63 24 84 41 60 9 -12 10 -25 3 -45 -6
-15 -11 -64 -12 -107 -2 -68 -4 -78 -19 -77 -22 2 -22 1 -1 -43 13 -28 14 -41
6 -64 -15 -40 -14 -207 1 -244 7 -17 11 -44 9 -60 -2 -17 2 -45 10 -64 12 -29
12 -37 0 -62 -20 -40 -6 -169 18 -169 4 0 5 10 2 23 -7 32 -4 68 7 82 6 7 10
17 9 21 -1 5 0 11 1 14 1 3 3 32 5 65 7 157 20 329 30 405 4 25 8 60 11 78 11
87 17 116 45 237 17 72 33 138 35 148 2 10 6 27 9 38 4 11 8 32 10 47 2 15 8
47 14 72 29 131 31 237 7 385 -6 40 -51 60 -134 60 -119 0 -230 -20 -443 -80
-48 -14 -104 -27 -124 -30 -21 -2 -44 -10 -52 -17 -26 -21 13 -27 147 -21 238
9 259 7 306 -27 23 -16 44 -26 46 -20 2 5 9 6 16 1 17 -10 19 -110 4 -166 -6
-22 -13 -52 -16 -66 -2 -15 -16 -80 -30 -145 -27 -125 -51 -259 -61 -334 -4
-25 -9 -61 -12 -80 -7 -52 -58 -207 -103 -314 -22 -53 -53 -147 -69 -210 -22
-86 -51 -162 -114 -293 -47 -98 -93 -207 -103 -243 -22 -83 -27 -304 -8 -377
20 -79 81 -200 107 -211 4 -2 7 -8 7 -13 0 -5 10 -26 23 -47 13 -20 30 -56 39
-78 14 -39 14 -45 -2 -90 -10 -27 -30 -76 -45 -109 -16 -33 -29 -62 -29 -65
-3 -14 -130 -249 -146 -270 l-18 -24 -98 51 c-55 28 -112 54 -129 58 -16 5
-34 9 -40 11 -103 28 -233 31 -301 8 -44 -15 -48 -15 -73 4 -34 24 -51 91 -39
152 5 25 11 65 13 90 3 25 7 56 10 69 2 14 7 47 10 75 3 28 10 89 16 136 6 47
13 110 15 140 16 214 21 258 46 360 21 90 63 180 83 180 7 0 20 9 30 20 10 11
15 20 12 20 -3 0 0 21 8 48 7 26 16 63 19 82 3 19 9 58 14 85 5 28 10 57 10
65 0 38 15 114 28 138 10 21 13 94 12 357 -1 181 1 344 5 360 4 17 20 65 36
107 47 121 66 204 76 333 21 266 22 270 85 331 45 45 41 55 -20 44z"/>
<path d="M5433 5531 c-141 -65 -183 -154 -200 -421 -9 -142 -9 -408 0 -443 8
-30 53 -55 111 -62 17 -2 58 -6 91 -10 87 -9 120 -27 145 -74 22 -45 36 -49
81 -25 55 28 80 17 116 -55 30 -59 36 -98 10 -72 -22 22 -27 10 -11 -26 23
-55 28 -88 28 -176 0 -73 -2 -79 -28 -102 -32 -27 -83 -40 -121 -31 -18 5 -28
17 -36 46 -12 39 -52 90 -70 90 -5 0 -12 1 -16 3 -8 3 -11 -16 -18 -128 -3
-49 -8 -110 -10 -135 -3 -25 -8 -67 -11 -95 -3 -27 -10 -68 -16 -90 -7 -22
-12 -42 -13 -45 -2 -8 -16 -123 -19 -165 -7 -73 -17 -170 -21 -195 -3 -14 -7
-43 -10 -65 -3 -22 -8 -53 -12 -70 -9 -40 -8 -34 -17 -90 -5 -27 -9 -72 -10
-100 -1 -27 -10 -77 -19 -110 -14 -51 -23 -111 -26 -187 -1 -10 -10 -26 -22
-37 -12 -11 -23 -37 -26 -58 -2 -21 -11 -67 -20 -103 -21 -89 -27 -147 -28
-270 0 -145 16 -167 147 -190 71 -13 293 -22 322 -13 18 5 18 6 2 15 -9 5 -29
12 -44 14 -72 12 -257 78 -284 102 -21 17 -23 10 -6 -21 11 -21 10 -21 -8 -7
-28 21 -54 53 -54 67 0 7 9 17 20 23 22 12 38 14 165 25 117 11 135 13 185 20
25 3 63 8 85 10 22 3 56 7 75 10 61 7 151 16 230 20 143 9 176 18 184 50 4 14
10 25 15 25 13 0 42 48 47 77 5 25 7 28 49 76 27 31 69 50 103 48 16 0 22 5
22 19 0 12 7 32 16 45 9 14 14 31 11 37 -2 7 0 24 6 38 5 14 11 30 13 35 1 6
14 43 28 84 14 41 26 84 26 95 0 12 7 30 15 40 8 11 15 32 15 47 0 20 12 38
49 68 39 33 81 92 86 121 14 79 18 115 20 160 6 130 27 337 35 348 7 7 25 124
22 135 -1 4 -3 27 -3 50 -1 43 -34 112 -64 137 -36 30 -36 55 4 147 21 48 48
121 62 162 24 74 64 131 93 131 8 0 29 -13 46 -30 35 -34 57 -37 141 -15 33 9
78 15 100 13 22 -1 43 3 47 9 9 14 36 21 101 28 97 10 184 66 210 135 6 17 16
44 22 60 7 17 20 35 30 41 14 7 16 15 10 32 -5 12 -7 31 -5 42 8 56 17 91 23
100 29 37 46 354 28 497 -10 80 -50 133 -92 122 -13 -3 -33 0 -45 6 -26 14
-199 21 -505 20 -276 0 -262 0 -277 1 -26 2 -359 -12 -380 -17 -13 -2 -41 -7
-62 -9 -31 -5 -117 -23 -221 -48 -5 -1 -14 -5 -20 -9 -5 -3 -35 -13 -65 -22
-45 -12 -272 -81 -290 -87 -3 -1 -13 -4 -22 -7 -84 -22 136 -19 362 4 156 16
201 11 228 -27 19 -27 54 -40 132 -46 36 -3 72 -9 80 -13 17 -9 771 -5 810 4
63 15 70 15 80 -3 23 -45 -17 -202 -74 -285 -14 -21 -26 -49 -26 -62 0 -17 -5
-22 -19 -19 -11 2 -41 6 -68 10 -26 4 -59 9 -73 11 -14 2 -50 6 -80 9 -50 6
-100 12 -155 20 -12 1 -38 12 -60 24 -27 14 -42 17 -51 10 -9 -7 -23 -4 -48 9
-43 23 -133 23 -169 -1 -23 -15 -45 -71 -53 -131 -6 -49 -14 -88 -30 -137 -17
-53 -18 -59 -34 -164 -7 -44 -19 -96 -27 -115 -15 -35 -20 -167 -8 -220 3 -14
8 -40 11 -58 7 -44 31 -111 49 -138 8 -12 12 -31 10 -43 -2 -13 3 -22 16 -26
12 -4 19 -14 17 -23 -2 -10 9 -39 24 -65 15 -26 28 -52 28 -57 0 -4 4 -10 9
-12 5 -1 32 -41 60 -88 40 -65 50 -91 46 -110 -11 -43 -55 -124 -77 -143 -12
-10 -23 -28 -25 -40 -2 -19 -116 -255 -143 -297 -6 -8 -26 -50 -46 -94 -27
-58 -57 -100 -113 -161 -55 -59 -90 -109 -126 -179 -78 -152 -121 -181 -274
-184 -59 -1 -79 -6 -95 -21 -31 -29 -152 -83 -178 -79 -23 3 -23 5 -22 124 1
67 7 144 13 170 7 27 14 57 16 66 4 19 13 145 20 293 10 195 25 294 62 414 23
73 33 91 82 140 63 62 75 81 86 137 5 21 10 46 12 54 4 21 12 95 17 155 2 28
6 66 10 85 3 19 8 55 11 80 2 25 7 54 9 65 2 11 14 61 25 112 27 120 36 215
23 240 -6 11 -13 31 -16 44 -3 13 -8 37 -11 53 -14 69 -48 95 -93 72 -43 -22
-146 -38 -264 -41 -123 -4 -177 7 -210 42 -22 24 -23 29 -21 186 5 327 13 448
32 499 21 56 115 136 146 124 19 -7 28 9 12 21 -22 16 -71 14 -114 -6z m2112
-125 c53 -28 69 -60 49 -99 -10 -18 -21 -27 -30 -23 -16 6 -18 -7 -4 -33 10
-19 16 -49 27 -118 5 -39 4 -43 -16 -43 -25 0 -24 2 -8 -41 14 -38 14 -49 2
-99 -12 -48 -12 -53 -3 -72 6 -12 1 -22 -17 -36 -30 -24 -31 -32 -5 -32 25 0
25 -11 -1 -44 -17 -21 -18 -26 -5 -26 9 0 16 -7 16 -16 0 -26 -20 -54 -38 -54
-14 0 -17 -7 -14 -40 5 -44 -10 -70 -39 -70 -11 0 -19 -5 -19 -10 0 -23 -32
-22 -56 1 l-26 24 7 -27 c9 -37 -12 -37 -54 -2 l-31 26 6 -30 c6 -27 3 -31
-29 -41 -54 -18 -87 -24 -145 -24 -59 0 -66 4 -58 31 8 25 44 43 93 47 46 3
66 12 58 26 -4 5 -3 9 2 10 33 3 56 15 128 64 55 38 93 57 114 57 25 1 31 4
25 17 -15 37 -25 79 -31 130 -5 52 -5 53 17 46 12 -4 20 -3 18 1 -23 42 -28
69 -28 145 -1 76 12 119 35 119 13 0 14 5 8 23 -12 35 -8 89 9 101 26 19 30
50 8 64 -11 7 -20 8 -20 3 0 -6 5 -13 10 -16 6 -4 8 -11 5 -16 -9 -13 -39 -11
-53 3 -14 14 -25 16 -107 23 -90 7 -135 16 -135 26 0 5 17 9 38 10 20 0 44 2
52 4 98 19 137 28 149 35 17 9 45 2 96 -24z m-475 -36 c0 -14 -7 -20 -22 -21
-13 0 -39 -2 -58 -5 -60 -8 -244 -11 -270 -4 -24 6 -24 6 -4 12 12 3 72 6 134
7 63 1 128 8 148 15 55 20 72 19 72 -4z m-452 -19 c13 -1 20 -5 17 -11 -8 -13
-182 -13 -190 -1 -9 16 15 18 173 12z m110 -513 c6 -6 41 -13 77 -14 36 -2 70
-6 75 -9 10 -6 -8 -65 -20 -65 -5 0 -15 -6 -23 -14 -23 -24 -102 -24 -111 -1
-4 12 0 14 19 9 16 -4 23 -2 21 8 -6 39 -62 84 -83 66 -10 -8 -13 -7 -13 4 0
29 35 39 58 16z m-85 -379 c-13 -13 -73 -20 -73 -9 0 17 54 39 68 28 7 -6 9
-15 5 -19z m-23 -177 c0 -4 -9 -13 -20 -19 -28 -18 -65 -1 -43 20 9 10 63 9
63 -1z m-1044 -189 c15 -20 18 -43 6 -43 -8 0 -32 43 -32 55 0 11 14 4 26 -12z
m1044 -77 c0 -18 -30 -30 -43 -17 -5 5 -6 14 -3 20 10 16 46 13 46 -3z"/>
<path d="M6794 4796 c-7 -18 23 -59 36 -51 11 7 1 42 -16 56 -11 9 -15 8 -20
-5z"/>
<path d="M4867 4024 c-3 -3 1 -25 8 -49 8 -24 12 -45 10 -47 -6 -6 -17 -61
-22 -111 -3 -29 -11 -51 -19 -54 -18 -7 -18 -37 1 -53 13 -10 17 -7 30 23 33
79 53 233 35 268 -10 18 -35 31 -43 23z"/>
</g>
</svg>
